# Blender v2.63 (sub 0) OBJ File: ''
# www.blender.org
o Cube
v 4.000000 0.000000 -4.000000
v 4.000000 0.000000 0.000000
v -0.000000 0.000000 -0.000000
v 0.000001 0.000000 -4.000001
v 4.000001 2.000000 -3.999999
v 3.999999 2.000000 0.000001
v -0.000001 2.000000 -0.000001
v 0.000000 2.000000 -4.000000
v 3.400001 2.518896 -3.399999
v 3.399999 2.518896 -0.599999
v 0.599999 2.518896 -0.600000
v 0.600000 2.518896 -3.400000
vn 0.000000 -1.000000 0.000000
vn 0.654136 0.756377 0.000000
vn 1.000000 0.000000 0.000000
vn -0.000000 -0.000000 1.000000
vn -1.000000 -0.000000 -0.000000
vn 0.000000 0.000000 -1.000000
vn 0.000000 1.000000 0.000000
vn 0.000000 0.756377 -0.654136
vn -0.000000 0.756377 0.654136
vn -0.654135 0.756377 -0.000000
s off
f 1//1 2//1 3//1
f 1//1 3//1 4//1
f 9//2 10//2 6//2
f 9//2 6//2 5//2
f 1//3 5//3 6//3
f 1//3 6//3 2//3
f 2//4 6//4 7//4
f 2//4 7//4 3//4
f 3//5 7//5 8//5
f 3//5 8//5 4//5
f 5//6 1//6 4//6
f 5//6 4//6 8//6
f 9//7 12//7 11//7
f 9//7 11//7 10//7
f 5//8 8//8 12//8
f 5//8 12//8 9//8
f 10//9 11//9 7//9
f 10//9 7//9 6//9
f 11//10 12//10 8//10
f 11//10 8//10 7//10
