# Blender v2.66 (sub 1) OBJ File: ''
# www.blender.org
o Cube.001
v 4.000000 0.000001 0.000000
v 4.000000 0.000000 4.000000
v 0.000000 0.000000 4.000000
v 0.000001 0.000001 -0.000001
v 3.400001 2.518897 0.600002
v 3.399999 2.518896 3.400002
v 3.999999 2.000000 4.000001
v 4.000001 2.000001 0.000001
v -0.000001 2.000000 3.999999
v 0.000000 2.000001 0.000000
v 0.600000 2.518897 0.600000
v 0.599999 2.518896 3.400000
vn 0.000000 -1.000000 -0.000000
vn 0.654135 0.756378 0.000001
vn 0.654136 0.756377 0.000000
vn 1.000000 -0.000000 0.000000
vn -0.000001 -0.000001 1.000000
vn 0.000000 0.000000 1.000000
vn -1.000000 -0.000001 -0.000000
vn -1.000000 -0.000000 -0.000000
vn 0.000000 0.000001 -1.000000
vn -0.000000 1.000000 0.000000
vn 0.000000 0.756378 -0.654135
vn -0.000000 0.756377 0.654136
vn -0.654135 0.756378 -0.000000
vn -0.654135 0.756377 -0.000000
s off
f 1//1 2//1 3//1
f 1//1 3//1 4//1
f 5//2 6//2 7//2
f 5//3 7//3 8//3
f 1//4 8//4 7//4
f 1//4 7//4 2//4
f 2//5 7//5 9//5
f 2//6 9//6 3//6
f 3//7 9//7 10//7
f 3//8 10//8 4//8
f 8//9 1//9 4//9
f 8//9 4//9 10//9
f 5//10 11//10 12//10
f 5//10 12//10 6//10
f 8//11 10//11 11//11
f 8//11 11//11 5//11
f 6//12 12//12 9//12
f 6//12 9//12 7//12
f 12//13 11//13 10//13
f 12//14 10//14 9//14
